<svg width="1920" height="1080" viewBox="0 0 1920 1080" xmlns="http://www.w3.org/2000/svg"><rect width="1920" height="1080" fill="#df6688"/><path d="M 0,1080 C 0,1080 0,180 0,180 C 117.03333333333336,198.52564102564102 234.06666666666672,217.05128205128204 351,198 C 467.9333333333333,178.94871794871796 584.7666666666665,122.32051282051282 690,135 C 795.2333333333335,147.67948717948718 888.8666666666668,229.66666666666666 996,228 C 1103.1333333333332,226.33333333333334 1223.7666666666667,141.01282051282053 1324,131 C 1424.2333333333333,120.98717948717947 1504.0666666666666,186.2820512820513 1600,207 C 1695.9333333333334,227.7179487179487 1807.9666666666667,203.85897435897436 1920,180 C 1920,180 1920,1080 1920,1080 Z" fill="#3d1053" opacity="0.09999999999999999"/><path d="M 0,1080 C 0,1080 0,360 0,360 C 139.26410256410256,373.55641025641023 278.5282051282051,387.1128205128205 368,379 C 457.4717948717949,370.8871794871795 497.151282051282,341.1051282051282 580,335 C 662.848717948718,328.8948717948718 788.8666666666668,346.4666666666667 921,347 C 1053.1333333333332,347.5333333333333 1191.3820512820512,331.0282051282052 1307,346 C 1422.6179487179488,360.9717948717948 1515.6051282051283,407.42051282051284 1614,415 C 1712.3948717948717,422.57948717948716 1816.1974358974358,391.2897435897436 1920,360 C 1920,360 1920,1080 1920,1080 Z" fill="#3d1053" opacity="0.19999999999999998"/><path d="M 0,1080 C 0,1080 0,540 0,540 C 96.41025641025641,568.374358974359 192.82051282051282,596.748717948718 301,597 C 409.1794871794872,597.251282051282 529.1282051282052,569.3794871794873 627,572 C 724.8717948717948,574.6205128205127 800.6666666666667,607.7333333333332 915,597 C 1029.3333333333333,586.2666666666668 1182.2051282051282,531.6871794871795 1297,523 C 1411.7948717948718,514.3128205128205 1488.5128205128206,551.5179487179487 1586,562 C 1683.4871794871794,572.4820512820513 1801.7435897435898,556.2410256410257 1920,540 C 1920,540 1920,1080 1920,1080 Z" fill="#3d1053" opacity="0.3"/><path d="M 0,1080 C 0,1080 0,720 0,720 C 125.77179487179487,682.8615384615384 251.54358974358973,645.723076923077 361,655 C 470.45641025641027,664.276923076923 563.597435897436,719.9692307692306 653,750 C 742.402564102564,780.0307692307694 828.0666666666668,784.4000000000001 945,765 C 1061.9333333333332,745.5999999999999 1210.1358974358975,702.4307692307693 1319,697 C 1427.8641025641025,691.5692307692307 1497.3897435897436,723.876923076923 1591,734 C 1684.6102564102564,744.123076923077 1802.3051282051283,732.0615384615385 1920,720 C 1920,720 1920,1080 1920,1080 Z" fill="#3d1053" opacity="0.39999999999999997"/><path d="M 0,1080 C 0,1080 0,900 0,900 C 82.43076923076919,872.0358974358974 164.86153846153837,844.0717948717949 269,840 C 373.1384615384616,835.9282051282051 498.9846153846155,855.7487179487179 629,887 C 759.0153846153845,918.2512820512821 893.2,960.9333333333334 992,948 C 1090.8,935.0666666666666 1154.2153846153847,866.5179487179486 1257,861 C 1359.7846153846153,855.4820512820514 1501.9384615384615,912.9948717948718 1619,930 C 1736.0615384615385,947.0051282051282 1828.0307692307692,923.5025641025641 1920,900 C 1920,900 1920,1080 1920,1080 Z" fill="#3d1053" opacity="0.49999999999999994"/></svg>