<?xml version="1.0" standalone="no"?><svg xmlns="http://www.w3.org/2000/svg" viewBox="0 0 1440 320"><path fill="#5cd2b9" fill-opacity="1" d="M0,288L26.7,282.7C53.3,277,107,267,160,266.7C213.3,267,267,277,320,288C373.3,299,427,309,480,261.3C533.3,213,587,107,640,69.3C693.3,32,747,64,800,101.3C853.3,139,907,181,960,213.3C1013.3,245,1067,267,1120,277.3C1173.3,288,1227,288,1280,277.3C1333.3,267,1387,245,1413,234.7L1440,224L1440,0L1413.3,0C1386.7,0,1333,0,1280,0C1226.7,0,1173,0,1120,0C1066.7,0,1013,0,960,0C906.7,0,853,0,800,0C746.7,0,693,0,640,0C586.7,0,533,0,480,0C426.7,0,373,0,320,0C266.7,0,213,0,160,0C106.7,0,53,0,27,0L0,0Z"></path></svg>